<svg xmlns="http://www.w3.org/2000/svg" xmlns:xlink="http://www.w3.org/1999/xlink" width="36" height="32" viewBox="0 0 36 32"><defs><path id="igcaa" d="M438.337 697v-32h35.326v32zm24.262-2.004c.898 0 2-.625 2.45-1.388l6.606-11.225c.45-.763.45-2.012 0-2.776l-6.606-11.224c-.45-.764-1.552-1.388-2.45-1.388h-13.212c-.899 0-2.001.624-2.45 1.388l-6.606 11.224c-.45.764-.45 2.013 0 2.776l6.606 11.225c.449.763 1.551 1.388 2.45 1.388z"/><path id="igcab" d="M449.387 694.996c-.899 0-2.001-.625-2.45-1.388l-6.606-11.225c-.45-.763-.45-2.012 0-2.776l6.606-11.224c.449-.764 1.551-1.388 2.45-1.388h13.212c.898 0 2 .624 2.45 1.388l6.606 11.224c.45.764.45 2.013 0 2.776l-6.606 11.225c-.45.763-1.552 1.388-2.45 1.388z"/><path id="igcad" d="M459.424 677.97c-.335-1.621-1.72-2.536-3.295-2.536-1.637 0-2.749.79-2.749 1.954 0 1.393 1.847 1.85 3.736 2.433 2.099.665 4.722 1.684 4.722 4.407 0 2.516-2.204 4.346-5.478 4.346-3.127 0-5.184-1.789-5.813-4.325l.015-.004a1.132 1.132 0 0 1 1.109-1.352c.494 0 .914.319 1.067.763l.033-.01c.273 1.518 1.554 2.87 3.673 2.87 1.868 0 2.96-.956 2.96-2.205 0-1.808-2.267-2.183-4.345-2.869-1.721-.582-4.05-1.393-4.05-3.93 0-2.266 2.203-4.074 5.225-4.074 2.729 0 4.87 1.6 5.415 3.93l-.091.024a1.132 1.132 0 0 1-1.123 1.007c-.37 0-.7-.18-.906-.458z"/><clipPath id="igcac"><use fill="#fff" xlink:href="#igcaa"/></clipPath></defs><g><g clip-path="url(#clip-2628)" transform="translate(-438 -665)"><use fill="#e2574c" xlink:href="#igcab"/><use fill="#fff" fill-opacity="0" stroke="#fff" stroke-linecap="round" stroke-linejoin="round" stroke-miterlimit="50" stroke-width="4" clip-path="url(&quot;#igcac&quot;)" xlink:href="#igcab"/></g><g clip-path="url(#clip-2628)" transform="translate(-438 -665)"><use fill="#fff" xlink:href="#igcad"/></g></g></svg>