<svg xmlns="http://www.w3.org/2000/svg" xmlns:xlink="http://www.w3.org/1999/xlink" width="64" height="64" viewBox="0 0 64 64"><defs><path id="mra6a" d="M512 863.161v4.001c0 2.207-2.094 3.562-4 4l-5.197 1.298a24.055 24.055 0 0 1-1.432 3.428l2.78 4.634c1.037 1.655 1.56 4.092 0 5.655l-2.83 2.828c-1.561 1.563-4.198 1.281-5.79.178l-4.511-2.875a23.835 23.835 0 0 1-3.616 1.515l-1.154 5.21c-.344 1.906-2.01 3.968-4.219 3.968h-4c-2.209 0-3.562-2.094-4-4l-1.28-5.119a23.719 23.719 0 0 1-3.919-1.647l-4.625 2.948c-1.592 1.103-4.228 1.385-5.789-.178l-2.83-2.828c-1.56-1.563-1.037-4 0-5.655l2.926-4.876a23.713 23.713 0 0 1-1.317-3.186L452 871.16c-1.906-.437-4-1.792-4-3.999v-4c0-2.21 2.062-3.876 3.969-4.22l5.132-1.137a23.731 23.731 0 0 1 1.409-3.44l-2.922-4.87c-1.038-1.658-1.562-4.096 0-5.658l2.83-2.828c1.56-1.561 4.197-1.282 5.788-.177l4.615 2.94a23.952 23.952 0 0 1 3.896-1.638L474 837c.438-1.907 1.791-4 4-4h4c2.209 0 3.875 2.062 4.219 3.97l1.152 5.194c1.27.41 2.49.929 3.658 1.536l4.502-2.87c1.592-1.104 4.229-1.383 5.79.178l2.83 2.828c1.56 1.562 1.037 4 0 5.657l-2.778 4.628a23.456 23.456 0 0 1 1.525 3.683l5.133 1.138c1.907.343 3.97 2.01 3.97 4.218zm-3.967.168c-.074-.14-.421-.398-.869-.48l-7.393-1.643-.691-2.208a19.275 19.275 0 0 0-1.27-3.057l-1.01-1.976 3.96-6.593a2.66 2.66 0 0 0 .363-.901l-2.625-2.55c-.26 0-.549.102-.818.286l-6.448 4.107-2.046-1.064a19.938 19.938 0 0 0-3.045-1.278l-2.178-.705-1.68-7.588c-.053-.288-.31-.637-.283-.678h-3.719c-.124.175-.293.509-.4.97l-1.824 7.297-2.126.677c-1.099.35-2.19.81-3.244 1.365l-2.055 1.084-6.707-4.275c-.138-.096-.425-.199-.68-.28l-2.63 2.628c.035.21.152.567.403.97l4.047 6.744-.972 1.961a19.846 19.846 0 0 0-1.176 2.861l-.693 2.205-7.545 1.671c-.275.05-.603.285-.67.285-.004 0-.007-.002-.009-.003v3.72c.174.122.508.294.97.399l7.344 1.836.686 2.104c.28.86.64 1.726 1.097 2.648l.972 1.96-4.09 6.816c-.22.349-.328.69-.363.898l2.623 2.553c.262 0 .55-.104.819-.285l6.585-4.198 2.056 1.086a19.576 19.576 0 0 0 3.26 1.37l2.13.675 1.84 7.363c.093.405.26.724.383.896h3.6c.145-.116.358-.436.434-.835l1.648-7.445 2.18-.706a19.55 19.55 0 0 0 3.006-1.261l2.047-1.058 6.584 4.199c.138.095.427.2.681.278l2.631-2.626c-.035-.211-.152-.568-.402-.968l-3.918-6.534 1.004-1.973c.482-.949.884-1.91 1.195-2.857l.687-2.102 7.416-1.851c.407-.094.727-.263.897-.384zm-28.006 13.69c-6.642 0-12.046-5.392-12.046-12.018 0-6.627 5.404-12.02 12.046-12.02 6.642 0 12.046 5.393 12.046 12.02 0 6.626-5.404 12.018-12.046 12.018zM480 857.002c-4.412 0-8 3.587-8 7.999 0 4.412 3.588 8 8 8 4.411 0 8-3.588 8-8s-3.589-8-8-8z"/></defs><g><g transform="translate(-448 -833)"><use fill="#ccd0d2" xlink:href="#mra6a"/></g></g></svg>