<svg xmlns="http://www.w3.org/2000/svg" xmlns:xlink="http://www.w3.org/1999/xlink" width="64" height="56" viewBox="0 0 64 56"><defs><path id="bn89a" d="M1452.22 889.043a2 2 0 1 1 0-4h4.571c6.841 0 11.358-7.595 11.358-14.412 0-7.49-6.516-13.518-13.945-13.674l-1.442-.03-.427-1.378c-2.064-6.676-6.527-10.59-14.472-10.59-9.91 0-16.322 7.348-16.322 17.09l.015.023.162 1.834-1.816.313c-4.423.76-7.949 5.296-7.949 10.326 0 5.691 4.408 10.498 9.552 10.498h5.778a2 2 0 1 1 0 4h-5.778c-7.312 0-13.49-6.639-13.49-14.498 0-6.42 4.012-12.088 9.568-13.864.693-11.165 8.756-19.722 20.28-19.722 9.057 0 15.053 4.687 17.843 12.09 9.044.973 16.279 8.35 16.279 17.582 0 8.588-5.21 18.143-15.21 18.407zm-18.485-9.807c-.558.584-1.464.774-2.023.19l-.504-.342a1.545 1.545 0 0 1 0-2.116l7.219-7.984c.01-.01.012-.023.021-.033l.506-.529a1.39 1.39 0 0 1 1.018-.435c.367-.002.736.142 1.014.435l.505.53c.01.01.014.02.024.032l7.402 8.11a1.545 1.545 0 0 1 0 2.116l-.504.34c-.558.585-1.463.396-2.021-.188l-4.4-4.852v20.133a2 2 0 0 1-4 0v-20.154z"/></defs><g><g transform="translate(-1408 -841)"><use fill="#ccd0d2" xlink:href="#bn89a"/></g></g></svg>